<svg width="156" height="156" viewBox="0 0 156 156" fill="none" xmlns="http://www.w3.org/2000/svg">
<path d="M0 77.7139C0 34.7937 34.7937 6.10352e-05 77.7139 6.10352e-05C120.634 6.10352e-05 155.428 34.7937 155.428 77.7139C155.428 120.634 120.634 155.428 77.7139 155.428C34.7937 155.428 0 120.634 0 77.7139Z" fill="#E6E9F7"/>
<path d="M151 65.5259H150.956C150.966 59.2558 150.976 54.5062 151 52.3783C151 47.7523 147.295 44.0001 142.721 44.0001H12.2739C7.70548 44.0001 4 47.7523 4 52.3783C4.01463 67.9204 4 92.2406 4 113.613C8.40269 123.231 14.5947 131.836 22.1373 139H132.858C140.4 131.841 146.588 123.241 150.99 113.628C150.99 98.7922 150.99 81.1469 150.99 65.5259H150.995H151Z" fill="#D2D1FF"/>
<path d="M150.758 27.0359C150.758 22.4847 147.067 18.7933 142.511 18.7933H12.5589C8.00782 18.7933 4.31641 22.4847 4.31641 27.0359C4.31641 33.3793 4.31641 109.335 4.31641 111.865C4.31641 111.865 4.34069 124.518 4.31641 126.84C4.31641 131.391 8.00781 135.082 12.5638 135.082H142.521C147.072 135.082 150.763 131.391 150.763 126.84C150.758 120.487 150.739 29.1293 150.763 27.0359H150.758Z" fill="white"/>
<rect x="17.5" y="87.5001" width="120" height="15" rx="3.5" stroke="#E6E9F6"/>
<rect x="22" y="92.0001" width="83" height="6" rx="1" fill="#E6E9F6"/>
<path d="M142.823 18.3492H12.8656C8.31446 18.3492 4.62305 22.0406 4.62305 26.5917V31.138H151.041C151.051 29.1757 151.055 27.6263 151.07 26.5917C151.07 22.0406 147.379 18.3492 142.823 18.3492Z" fill="#9694FF"/>
<path d="M129.393 27.3226C130.578 27.3226 131.54 26.3609 131.54 25.1757C131.54 23.9906 130.578 23.0289 129.393 23.0289C128.208 23.0289 127.246 23.9906 127.246 25.1757C127.246 26.3609 128.208 27.3226 129.393 27.3226Z" fill="#F9F1EC"/>
<path d="M136.108 27.3226C137.293 27.3226 138.255 26.3609 138.255 25.1757C138.255 23.9906 137.293 23.0289 136.108 23.0289C134.923 23.0289 133.961 23.9906 133.961 25.1757C133.961 26.3609 134.923 27.3226 136.108 27.3226Z" fill="#F9F1EC"/>
<path d="M142.821 27.3224C144.006 27.3224 144.968 26.3607 144.968 25.1756C144.968 23.9905 144.006 23.0287 142.821 23.0287C141.636 23.0287 140.674 23.9905 140.674 25.1756C140.674 26.3607 141.636 27.3224 142.821 27.3224Z" fill="#F9F1EC"/>
<path d="M67.3887 132.694L60.7539 94.9835L94.6517 113.722L75.2573 116.379L67.3887 132.694Z" fill="#A6A5FF"/>
<rect x="17.5" y="42.5001" width="120" height="15" rx="3.5" stroke="#E6E9F6"/>
<rect x="17.5" y="65.5001" width="120" height="15" rx="3.5" stroke="#E6E9F6"/>
<rect x="22" y="47.0001" width="96" height="6" rx="1" fill="#E6E9F6"/>
<rect x="22" y="70.0001" width="105" height="6" rx="1" fill="#E6E9F6"/>
</svg>
