<svg width="135" height="249" viewBox="0 0 135 249" fill="none" xmlns="http://www.w3.org/2000/svg">
<rect x="0.5" y="139.5" width="134" height="109" rx="19.5" fill="white" stroke="#E9E8E8"/>
<path d="M28.5385 176.7H107.462M28.5385 194.5H107.462M28.5385 212.3H107.462M24.1538 239H111.846C115.335 239 118.681 237.594 121.147 235.09C123.614 232.586 125 229.191 125 225.65V163.35C125 159.809 123.614 156.414 121.147 153.91C118.681 151.407 115.335 150 111.846 150H24.1538C20.6652 150 17.3195 151.407 14.8527 153.91C12.3858 156.414 11 159.809 11 163.35V225.65C11 229.191 12.3858 232.586 14.8527 235.09C17.3195 237.594 20.6652 239 24.1538 239Z" stroke="#D2D2D2" stroke-width="2" stroke-linecap="round" stroke-linejoin="round"/>
<path d="M21 110L21 138" stroke="#4258FF" stroke-dasharray="2 2"/>
<rect x="0.5" y="0.500061" width="134" height="109" rx="19.5" fill="white" stroke="#E9E8E8"/>
<path d="M84.5385 37.7001H106.462M84.5385 55.5001H106.462M84.5385 73.3001H106.462M23.1538 100H110.846C114.335 100 117.681 98.5935 120.147 96.0899C122.614 93.5863 124 90.1907 124 86.6501V24.3501C124 20.8094 122.614 17.4138 120.147 14.9102C117.681 12.4066 114.335 11.0001 110.846 11.0001H23.1538C19.6652 11.0001 16.3195 12.4066 13.8527 14.9102C11.3858 17.4138 10 20.8094 10 24.3501V86.6501C10 90.1907 11.3858 93.5863 13.8527 96.0899C16.3195 98.5935 19.6652 100 23.1538 100ZM58.2308 39.9251C58.2308 41.386 57.9472 42.8327 57.3964 44.1824C56.8455 45.5322 56.0381 46.7586 55.0202 47.7916C54.0023 48.8247 52.7939 49.6441 51.464 50.2032C50.1341 50.7623 48.7087 51.0501 47.2692 51.0501C45.8297 51.0501 44.4043 50.7623 43.0744 50.2032C41.7445 49.6441 40.5361 48.8247 39.5183 47.7916C38.5004 46.7586 37.693 45.5322 37.1421 44.1824C36.5912 42.8327 36.3077 41.386 36.3077 39.9251C36.3077 36.9745 37.4626 34.1448 39.5183 32.0585C41.5739 29.9722 44.3621 28.8001 47.2692 28.8001C50.1764 28.8001 52.9645 29.9722 55.0202 32.0585C57.0759 34.1448 58.2308 36.9745 58.2308 39.9251ZM65.7957 77.5187C60.0916 80.6022 53.7262 82.2102 47.2634 82.2001C40.8046 82.2082 34.4434 80.6003 28.7428 77.5187C30.1358 73.6694 32.6594 70.3468 35.9725 67.9996C39.2857 65.6525 43.2288 64.3939 47.2692 64.3939C51.3097 64.3939 55.2528 65.6525 58.566 67.9996C61.8791 70.3468 64.4026 73.6694 65.7957 77.5187Z" stroke="#4258FF" stroke-width="2" stroke-linecap="round" stroke-linejoin="round"/>
</svg>
