<svg width="156" height="156" viewBox="0 0 156 156" fill="none" xmlns="http://www.w3.org/2000/svg">
<path d="M0 77.7139C0 34.7937 34.7937 6.10352e-05 77.7139 6.10352e-05C120.634 6.10352e-05 155.428 34.7937 155.428 77.7139C155.428 120.634 120.634 155.428 77.7139 155.428C34.7937 155.428 0 120.634 0 77.7139Z" fill="#E6E9F7"/>
<path d="M151 65.5259H150.956C150.966 59.2558 150.976 54.5062 151 52.3783C151 47.7523 147.295 44.0001 142.721 44.0001H12.2739C7.70548 44.0001 4 47.7523 4 52.3783C4.01463 67.9204 4 92.2406 4 113.613C8.40269 123.231 14.5947 131.836 22.1373 139H132.858C140.4 131.841 146.588 123.241 150.99 113.628C150.99 98.7922 150.99 81.1469 150.99 65.5259H150.995H151Z" fill="#D2D1FF"/>
<path d="M150.758 27.0359C150.758 22.4847 147.067 18.7933 142.511 18.7933H12.5589C8.00782 18.7933 4.31641 22.4847 4.31641 27.0359C4.31641 33.3793 4.31641 109.335 4.31641 111.865C4.31641 111.865 4.34069 124.518 4.31641 126.84C4.31641 131.391 8.00781 135.082 12.5638 135.082H142.521C147.072 135.082 150.763 131.391 150.763 126.84C150.758 120.487 150.739 29.1293 150.763 27.0359H150.758Z" fill="white"/>
<path d="M142.823 18.3492H12.8656C8.31446 18.3492 4.62305 22.0406 4.62305 26.5917V31.138H151.041C151.051 29.1757 151.055 27.6263 151.07 26.5917C151.07 22.0406 147.379 18.3492 142.823 18.3492Z" fill="#9694FF"/>
<path d="M129.393 27.3224C130.578 27.3224 131.54 26.3607 131.54 25.1756C131.54 23.9905 130.578 23.0287 129.393 23.0287C128.208 23.0287 127.246 23.9905 127.246 25.1756C127.246 26.3607 128.208 27.3224 129.393 27.3224Z" fill="#F9F1EC"/>
<path d="M136.108 27.3224C137.293 27.3224 138.255 26.3607 138.255 25.1756C138.255 23.9905 137.293 23.0287 136.108 23.0287C134.923 23.0287 133.961 23.9905 133.961 25.1756C133.961 26.3607 134.923 27.3224 136.108 27.3224Z" fill="#F9F1EC"/>
<path d="M142.821 27.3224C144.006 27.3224 144.968 26.3607 144.968 25.1756C144.968 23.9905 144.006 23.0287 142.821 23.0287C141.636 23.0287 140.674 23.9905 140.674 25.1756C140.674 26.3607 141.636 27.3224 142.821 27.3224Z" fill="#F9F1EC"/>
<path d="M62.6692 98.7292C61.5535 98.7292 60.5167 98.0311 60.1098 96.8596C59.2087 94.2748 58.7474 91.522 58.75 88.7449C58.75 83.5678 60.3224 78.8108 62.9553 75.036C63.3517 74.468 63.9344 74.1218 64.5303 73.8615C65.7719 73.3201 66.8665 72.3409 67.7118 71.128C69.7495 68.1982 72.3074 65.7799 75.2219 64.028C77.1198 62.892 78.7657 61.1998 79.561 58.9545C80.1196 57.3814 80.4065 55.7025 80.4063 54.0081V52.1355C80.4063 51.547 80.6137 50.9827 80.9829 50.5666C81.3521 50.1505 81.8529 49.9167 82.375 49.9167C83.9415 49.9167 85.4437 50.618 86.5514 51.8663C87.659 53.1146 88.2813 54.8077 88.2813 56.573C88.2813 59.981 87.5988 63.2085 86.3834 66.0929C85.6852 67.7437 86.6643 69.8855 88.2865 69.8855H96.4923C99.1855 69.8855 101.598 71.9386 101.884 74.959C102.002 76.2075 102.063 77.4736 102.063 78.7605C102.073 86.8555 99.6188 94.7095 95.1089 101.01C94.0904 102.436 92.518 103.167 90.8958 103.167H80.3538C79.0859 103.167 77.8233 102.936 76.6184 102.486L68.4442 99.4097C67.2395 98.9582 65.9783 98.7284 64.7088 98.7292H62.6692ZM49.1189 75.7341C47.6723 79.8779 46.9323 84.292 46.9375 88.7449C46.9342 92.2603 47.3942 95.7567 48.3025 99.1197C48.985 101.634 51.1507 103.167 53.4843 103.167H55.8625C57.0307 103.167 57.7525 101.693 57.2354 100.51C55.6345 96.8509 54.8045 92.8247 54.8099 88.7449C54.8099 83.692 56.0594 78.9676 58.2277 74.9413C58.8708 73.7491 58.1542 72.1042 56.9152 72.1042H54.1563C51.9723 72.1042 49.9222 73.4444 49.1189 75.7341Z" fill="#24BC97"/>
</svg>
