<svg width="412" height="152" viewBox="0 0 412 152" fill="none" xmlns="http://www.w3.org/2000/svg">
<line x1="150" y1="78.5" x2="263" y2="78.5" stroke="#B7B0B0" stroke-dasharray="2 2"/>
<path d="M336.74 151.481C378.019 151.481 411.481 118.019 411.481 76.7405C411.481 35.462 378.019 2 336.74 2C295.462 2 262 35.462 262 76.7405C262 118.019 295.462 151.481 336.74 151.481Z" fill="#E8ECFB"/>
<path d="M358.59 23.6729H315.396C312.232 23.6729 309.666 26.2385 309.666 29.4033V124.615C309.666 127.78 312.232 130.346 315.396 130.346H358.59C361.755 130.346 364.321 127.78 364.321 124.615V29.4033C364.321 26.2385 361.755 23.6729 358.59 23.6729Z" fill="white"/>
<rect opacity="0.3" x="321" y="60" width="31" height="31" rx="2" fill="#B9D0FF"/>
<g clip-path="url(#clip0_901_546)">
<path d="M337 68.334V71.0007M339.8 72.2007L341.733 70.2673M341 75.0007H343.666M339.8 77.8007L341.733 79.734M337 79.0007V81.6673M332.266 79.734L334.2 77.8007M330.333 75.0007H333M332.266 70.2673L334.2 72.2007" stroke="#1664FF" stroke-width="2" stroke-linecap="round" stroke-linejoin="round"/>
</g>
<path d="M358.597 131.018H315.403C311.872 131.018 309 128.146 309 124.615V29.4031C309 25.872 311.872 23 315.403 23H358.597C362.128 23 365 25.872 365 29.4031V124.615C365 128.146 362.128 131.018 358.597 131.018ZM315.403 24.3519C312.612 24.3519 310.345 26.6185 310.345 29.4098V124.622C310.345 127.413 312.612 129.68 315.403 129.68H358.597C361.388 129.68 363.655 127.413 363.655 124.622V29.4031C363.655 26.6118 361.388 24.3452 358.597 24.3452H315.403V24.3519Z" fill="#838383"/>
<path d="M338.347 23.8877H325.984C327.659 25.5624 330.168 26.531 332.791 26.531H342.1C344.736 26.531 347.232 25.5624 348.906 23.8877H338.353H338.347Z" fill="#838383"/>
<path d="M350.808 111.392H323.185C319.855 111.392 317.165 113.954 317.165 117.122C317.165 120.29 319.862 122.853 323.185 122.853H350.808C354.137 122.853 356.828 120.29 356.828 117.122C356.828 113.954 354.131 111.392 350.808 111.392Z" fill="#6285F9"/>
<path d="M125.622 112.721C124.817 112.721 124.007 112.422 123.389 111.824L120.857 109.38L121.322 108.899L123.854 111.343C124.85 112.302 126.452 112.285 127.427 111.31L135.358 103.358L135.831 103.831L127.9 111.783C127.277 112.41 126.447 112.721 125.622 112.721Z" fill="white"/>
<path d="M75 150C116.422 150 150 116.422 150 75C150 33.5782 116.422 0 75 0C33.5782 0 0 33.5782 0 75C0 116.422 33.5782 150 75 150Z" fill="#E8ECFB"/>
<path d="M96.7643 115.932V102.365H57.1651V115.932C57.1651 120.48 55.1731 123.24 52.0108 125.327C51.0812 125.941 51.5169 127.39 52.6333 127.39H101.296C102.412 127.39 102.848 125.941 101.919 125.327C98.7605 123.24 96.7643 120.48 96.7643 115.932Z" fill="#B7B0B0"/>
<path d="M96.7643 109.009L57.165 114.027V100.705H96.7643V109.009Z" fill="#686666"/>
<path d="M130.126 27.408H23.8033C20.0766 27.408 17.0595 30.4292 17.0595 34.1517C17.0803 53.6816 17.0471 81.9058 17.0595 101.432C17.0595 105.158 20.0807 108.175 23.8033 108.175H130.126C133.853 108.175 136.87 105.154 136.87 101.432C136.87 101.432 136.77 43.2651 136.87 34.1517C136.87 30.425 133.849 27.408 130.122 27.408H130.126Z" fill="white"/>
<path d="M59 66L98 66" stroke="#1664FF" stroke-dasharray="4 4"/>
<path d="M17 97V102.627C17 106.354 20.0212 109.371 23.7437 109.371H130.071C133.798 109.371 136.815 106.35 136.815 102.627V97H17Z" fill="#B7B0B0"/>
<path d="M130.126 27.408H23.8033C20.0766 27.408 17.0596 30.4292 17.0596 34.1517V37.8701H136.849C136.853 36.2641 136.862 34.9983 136.874 34.1517C136.874 30.425 133.853 27.408 130.126 27.408Z" fill="#BABAF8"/>
<path d="M119.39 34.384C120.361 34.384 121.146 33.5954 121.146 32.6285C121.146 31.6615 120.357 30.873 119.39 30.873C118.423 30.873 117.635 31.6615 117.635 32.6285C117.635 33.5954 118.423 34.384 119.39 34.384Z" fill="white"/>
<path d="M124.885 34.384C125.856 34.384 126.641 33.5954 126.641 32.6285C126.641 31.6615 125.852 30.873 124.885 30.873C123.918 30.873 123.13 31.6615 123.13 32.6285C123.13 33.5954 123.918 34.384 124.885 34.384Z" fill="white"/>
<path d="M130.376 34.384C131.347 34.384 132.131 33.5954 132.131 32.6285C132.131 31.6615 131.343 30.873 130.376 30.873C129.409 30.873 128.62 31.6615 128.62 32.6285C128.62 33.5954 129.409 34.384 130.376 34.384Z" fill="white"/>
<path d="M102.039 126.153H51.8701C51.6418 126.153 51.4551 125.966 51.4551 125.738C51.4551 125.51 51.6418 125.323 51.8701 125.323H102.039C102.268 125.323 102.454 125.51 102.454 125.738C102.454 125.966 102.268 126.153 102.039 126.153Z" fill="#686666"/>
<path d="M77.2014 105.336C75.8153 105.336 74.6865 104.208 74.6865 102.822C74.6865 101.435 75.8153 100.307 77.2014 100.307C78.5875 100.307 79.7163 101.435 79.7163 102.822C79.7163 104.208 78.5875 105.336 77.2014 105.336ZM77.2014 101.137C76.2718 101.137 75.5165 101.892 75.5165 102.822C75.5165 103.751 76.2718 104.506 77.2014 104.506C78.131 104.506 78.8863 103.751 78.8863 102.822C78.8863 101.892 78.131 101.137 77.2014 101.137Z" fill="#686666"/>
<path d="M49 63H52.75M49 66H52.75M49 69H52.75M38.5 73.5H53.5C54.0967 73.5 54.669 73.2629 55.091 72.841C55.5129 72.419 55.75 71.8467 55.75 71.25V60.75C55.75 60.1533 55.5129 59.581 55.091 59.159C54.669 58.7371 54.0967 58.5 53.5 58.5H38.5C37.9033 58.5 37.331 58.7371 36.909 59.159C36.4871 59.581 36.25 60.1533 36.25 60.75V71.25C36.25 71.8467 36.4871 72.419 36.909 72.841C37.331 73.2629 37.9033 73.5 38.5 73.5ZM44.5 63.375C44.5 63.6212 44.4515 63.865 44.3573 64.0925C44.263 64.32 44.1249 64.5267 43.9508 64.7008C43.7767 64.8749 43.57 65.013 43.3425 65.1073C43.115 65.2015 42.8712 65.25 42.625 65.25C42.3788 65.25 42.135 65.2015 41.9075 65.1073C41.68 65.013 41.4733 64.8749 41.2992 64.7008C41.1251 64.5267 40.987 64.32 40.8927 64.0925C40.7985 63.865 40.75 63.6212 40.75 63.375C40.75 62.8777 40.9475 62.4008 41.2992 62.0492C41.6508 61.6975 42.1277 61.5 42.625 61.5C43.1223 61.5 43.5992 61.6975 43.9508 62.0492C44.3025 62.4008 44.5 62.8777 44.5 63.375ZM45.794 69.711C44.8183 70.2307 43.7295 70.5017 42.624 70.5C41.5192 70.5014 40.4311 70.2304 39.456 69.711C39.6943 69.0622 40.1259 68.5023 40.6927 68.1067C41.2594 67.7111 41.9339 67.499 42.625 67.499C43.3161 67.499 43.9906 67.7111 44.5573 68.1067C45.1241 68.5023 45.5557 69.0622 45.794 69.711Z" stroke="#1664FF" stroke-width="1.5" stroke-linecap="round" stroke-linejoin="round"/>
<g opacity="0.2">
<path d="M102.542 73.625V72.0417C102.542 71.6217 102.708 71.219 103.005 70.9221C103.302 70.6251 103.705 70.4583 104.125 70.4583H108.875C109.295 70.4583 109.698 70.6251 109.995 70.9221C110.292 71.219 110.458 71.6217 110.458 72.0417V73.625M100.958 59.375H112.042C112.916 59.375 113.625 60.0839 113.625 60.9583V72.0417C113.625 72.9161 112.916 73.625 112.042 73.625H100.958C100.084 73.625 99.375 72.9161 99.375 72.0417V60.9583C99.375 60.0839 100.084 59.375 100.958 59.375ZM108.875 64.9167C108.875 66.2283 107.812 67.2917 106.5 67.2917C105.188 67.2917 104.125 66.2283 104.125 64.9167C104.125 63.605 105.188 62.5417 106.5 62.5417C107.812 62.5417 108.875 63.605 108.875 64.9167Z" stroke="#1664FF" stroke-width="1.5" stroke-linecap="round" stroke-linejoin="round"/>
</g>
<defs>
<clipPath id="clip0_901_546">
<rect width="16" height="16" fill="white" transform="translate(329 67)"/>
</clipPath>
</defs>
</svg>
