<svg width="173" height="173" viewBox="0 0 173 173" fill="none" xmlns="http://www.w3.org/2000/svg">
<g opacity="0.33">
<circle opacity="0.1" cx="80" cy="93.0001" r="37.5" stroke="black"/>
<circle opacity="0.1" cx="80" cy="93.0001" r="48.5" stroke="black"/>
<circle opacity="0.1" cx="80" cy="93.0001" r="58.5" stroke="black"/>
<circle opacity="0.1" cx="80" cy="93.0001" r="73.5" stroke="black"/>
<circle opacity="0.1" cx="80" cy="93.0001" r="79.5" stroke="black"/>
</g>
<path d="M22 38.179C22 36.3178 23.2837 34.7025 25.0968 34.2823L168.097 1.13656C170.604 0.555367 173 2.45933 173 5.03326V116.961C173 118.757 171.803 120.333 170.072 120.814L27.0719 160.589C24.5228 161.298 22 159.381 22 156.736V38.179Z" fill="#E9F2FF"/>
<path d="M32.4658 98.5575C31.4586 98.8037 30.75 99.7063 30.75 100.743V142.984C30.75 144.472 32.1688 145.55 33.6025 145.152L165.328 108.541C166.301 108.27 166.975 107.384 166.975 106.373V68.5478C166.975 67.0889 165.608 66.0157 164.191 66.3621L32.4658 98.5575Z" fill="white" stroke="black" stroke-width="0.5"/>
<path d="M39.3842 114.483C39.377 113.565 39.9959 112.76 40.8849 112.53L152.957 83.6392C154.217 83.3145 155.446 84.2595 155.456 85.5602L155.47 87.2915C155.477 88.2096 154.858 89.0147 153.969 89.2439L41.897 118.135C40.6375 118.46 39.408 117.515 39.3978 116.214L39.3842 114.483Z" fill="#F2F2F2"/>
<path d="M39.3606 125.954C39.2733 124.979 39.9051 124.084 40.8534 123.839L113.442 105.127C114.637 104.819 115.823 105.656 115.933 106.885L116.085 108.581C116.172 109.556 115.541 110.451 114.592 110.696L42.0037 129.408C40.8087 129.716 39.6225 128.879 39.5125 127.65L39.3606 125.954Z" fill="#F2F2F2"/>
<path d="M120.169 104.313C120.109 103.218 120.941 102.279 122.035 102.207L123.166 102.133C124.276 102.06 125.233 102.907 125.294 104.019L125.387 105.696C125.447 106.791 124.615 107.73 123.521 107.802L122.39 107.876C121.28 107.949 120.323 107.102 120.262 105.99L120.169 104.313Z" fill="#F2F2F2"/>
<path d="M29 49.7432C29 48.8215 29.6298 48.0192 30.5252 47.8004L162.25 15.6049C163.51 15.2971 164.725 16.251 164.725 17.5478V59.8723C164.725 60.794 164.095 61.5963 163.2 61.8151L31.4749 94.0106C30.2151 94.3185 29 93.3645 29 92.0677V49.7432Z" fill="#FAFAFA"/>
<path d="M30.4658 47.5575C29.4586 47.8037 28.75 48.7063 28.75 49.7432V92.0677C28.75 93.5266 30.117 94.5998 31.5342 94.2534L163.259 62.058C164.267 61.8118 164.975 60.9092 164.975 59.8723V17.5478C164.975 16.0889 163.608 15.0157 162.191 15.3621L30.4658 47.5575Z" stroke="black" stroke-opacity="0.32" stroke-width="0.5"/>
<path d="M35.6245 61.6475C35.6173 60.7294 36.2361 59.9243 37.1252 59.6951L149.197 30.804C150.457 30.4793 151.686 31.4243 151.697 32.725L151.71 34.4563C151.717 35.3744 151.099 36.1795 150.209 36.4087L38.1372 65.2999C36.8777 65.6246 35.6482 64.6795 35.6381 63.3789L35.6245 61.6475Z" fill="#F2F2F2"/>
<path d="M34.9915 74.4161C34.9041 73.4407 35.5359 72.5455 36.4842 72.301L109.073 53.5884C110.268 53.2803 111.454 54.1175 111.564 55.3467L111.716 57.0424C111.803 58.0178 111.171 58.913 110.223 59.1575L37.6346 77.8701C36.4395 78.1782 35.2534 77.341 35.1433 76.1118L34.9915 74.4161Z" fill="#F2F2F2"/>
<path d="M116.105 54.313C116.045 53.2184 116.877 52.2792 117.971 52.2073L119.101 52.1328C120.212 52.0597 121.169 52.9073 121.23 54.0185L121.322 55.696C121.382 56.7906 120.55 57.7297 119.457 57.8017L118.326 57.8761C117.215 57.9492 116.259 57.1017 116.197 55.9905L116.105 54.313Z" fill="#D8E1E9"/>
<ellipse cx="12.7013" cy="11.7535" rx="12.7013" ry="11.7535" transform="matrix(-0.866025 0.5 2.20305e-08 1 163 93.939)" fill="black"/>
<ellipse cx="12.5209" cy="11.6402" rx="12.5209" ry="11.6402" transform="matrix(-0.866025 0.5 2.20305e-08 1 165 95.2754)" fill="#1664FF"/>
<path d="M149.834 116.291L152.488 118.566L158.175 109.088" stroke="white" stroke-width="1.5"/>
</svg>
