<svg width="135" height="249" viewBox="0 0 135 249" fill="none" xmlns="http://www.w3.org/2000/svg">
<rect x="0.5" y="0.500061" width="134" height="109" rx="19.5" fill="white" stroke="#E9E8E8"/>
<rect x="0.5" y="139.5" width="134" height="109" rx="19.5" fill="white" stroke="#E9E8E8"/>
<path d="M23 110L23 138" stroke="#4258FF" stroke-dasharray="2 2"/>
<path d="M84.5385 37.7001H106.462M84.5385 55.5001H106.462M84.5385 73.3001H106.462M23.1538 100H110.846C114.335 100 117.681 98.5935 120.147 96.0899C122.614 93.5863 124 90.1907 124 86.6501V24.3501C124 20.8094 122.614 17.4138 120.147 14.9102C117.681 12.4066 114.335 11.0001 110.846 11.0001H23.1538C19.6652 11.0001 16.3195 12.4066 13.8527 14.9102C11.3858 17.4138 10 20.8094 10 24.3501V86.6501C10 90.1907 11.3858 93.5863 13.8527 96.0899C16.3195 98.5935 19.6652 100 23.1538 100ZM58.2308 39.9251C58.2308 41.386 57.9472 42.8327 57.3964 44.1824C56.8455 45.5322 56.0381 46.7586 55.0202 47.7916C54.0023 48.8247 52.7939 49.6441 51.464 50.2032C50.1341 50.7623 48.7087 51.0501 47.2692 51.0501C45.8297 51.0501 44.4043 50.7623 43.0744 50.2032C41.7445 49.6441 40.5361 48.8247 39.5183 47.7916C38.5004 46.7586 37.693 45.5322 37.1421 44.1824C36.5912 42.8327 36.3077 41.386 36.3077 39.9251C36.3077 36.9745 37.4626 34.1448 39.5183 32.0585C41.5739 29.9722 44.3621 28.8001 47.2692 28.8001C50.1764 28.8001 52.9645 29.9722 55.0202 32.0585C57.0759 34.1448 58.2308 36.9745 58.2308 39.9251ZM65.7957 77.5187C60.0916 80.6022 53.7262 82.2102 47.2634 82.2001C40.8046 82.2082 34.4434 80.6003 28.7428 77.5187C30.1358 73.6694 32.6594 70.3468 35.9725 67.9996C39.2857 65.6525 43.2288 64.3939 47.2692 64.3939C51.3097 64.3939 55.2528 65.6525 58.566 67.9996C61.8791 70.3468 64.4026 73.6694 65.7957 77.5187Z" stroke="#4258FF" stroke-width="2" stroke-linecap="round" stroke-linejoin="round"/>
<path d="M27.5385 175.7H106.462M27.5385 193.5H106.462M27.5385 211.3H106.462M23.1538 238H110.846C114.335 238 117.681 236.594 120.147 234.09C122.614 231.586 124 228.191 124 224.65V162.35C124 158.809 122.614 155.414 120.147 152.91C117.681 150.407 114.335 149 110.846 149H23.1538C19.6652 149 16.3195 150.407 13.8527 152.91C11.3858 155.414 10 158.809 10 162.35V224.65C10 228.191 11.3858 231.586 13.8527 234.09C16.3195 236.594 19.6652 238 23.1538 238Z" stroke="#4258FF" stroke-width="2" stroke-linecap="round" stroke-linejoin="round"/>
</svg>
