<svg width="156" height="156" viewBox="0 0 156 156" fill="none" xmlns="http://www.w3.org/2000/svg">
<path d="M0 77.7139C0 34.7937 34.7937 6.10352e-05 77.7139 6.10352e-05C120.634 6.10352e-05 155.428 34.7937 155.428 77.7139C155.428 120.634 120.634 155.428 77.7139 155.428C34.7937 155.428 0 120.634 0 77.7139Z" fill="#E6E9F7"/>
<path d="M151 65.5259H150.956C150.966 59.2558 150.976 54.5062 151 52.3783C151 47.7523 147.295 44.0001 142.721 44.0001H12.2739C7.70548 44.0001 4 47.7523 4 52.3783C4.01463 67.9204 4 92.2406 4 113.613C8.40269 123.231 14.5947 131.836 22.1373 139H132.858C140.4 131.841 146.588 123.241 150.99 113.628C150.99 98.7922 150.99 81.1469 150.99 65.5259H150.995H151Z" fill="#D2D1FF"/>
<path d="M150.758 27.0359C150.758 22.4847 147.067 18.7933 142.511 18.7933H12.5589C8.00782 18.7933 4.31641 22.4847 4.31641 27.0359C4.31641 33.3793 4.31641 109.335 4.31641 111.865C4.31641 111.865 4.34069 124.518 4.31641 126.84C4.31641 131.391 8.00781 135.082 12.5638 135.082H142.521C147.072 135.082 150.763 131.391 150.763 126.84C150.758 120.487 150.739 29.1293 150.763 27.0359H150.758Z" fill="white"/>
<rect opacity="0.3" x="56.5" y="38.5001" width="82" height="60" rx="2.5" stroke="black" stroke-opacity="0.4" stroke-dasharray="4 4"/>
<path d="M134.166 105.542H106.833C104.946 105.542 103.416 107.072 103.416 108.958V126.042C103.416 127.929 104.946 129.458 106.833 129.458H134.166C136.053 129.458 137.583 127.929 137.583 126.042V108.958C137.583 107.072 136.053 105.542 134.166 105.542Z" fill="#9ECDE8"/>
<rect x="107.5" y="116.5" width="12" height="9" rx="0.5" fill="white" stroke="white"/>
<rect x="122.5" y="116.5" width="12" height="3" rx="0.5" fill="white" stroke="white"/>
<rect x="107.5" y="109.5" width="27" height="3" rx="0.5" fill="white" stroke="white"/>
<rect x="122.5" y="122.5" width="12" height="3" rx="0.5" fill="white" stroke="white"/>
<path d="M142.822 18.3492H12.8646C8.31348 18.3492 4.62207 22.0406 4.62207 26.5917V31.138H151.04C151.05 29.1757 151.054 27.6263 151.069 26.5917C151.069 22.0406 147.378 18.3492 142.822 18.3492Z" fill="#9694FF"/>
<path d="M129.392 27.3224C130.577 27.3224 131.539 26.3607 131.539 25.1756C131.539 23.9905 130.577 23.0287 129.392 23.0287C128.207 23.0287 127.245 23.9905 127.245 25.1756C127.245 26.3607 128.207 27.3224 129.392 27.3224Z" fill="#F9F1EC"/>
<path d="M136.109 27.3224C137.294 27.3224 138.256 26.3607 138.256 25.1756C138.256 23.9905 137.294 23.0287 136.109 23.0287C134.924 23.0287 133.962 23.9905 133.962 25.1756C133.962 26.3607 134.924 27.3224 136.109 27.3224Z" fill="#F9F1EC"/>
<path d="M142.821 27.3224C144.006 27.3224 144.968 26.3607 144.968 25.1756C144.968 23.9905 144.006 23.0287 142.821 23.0287C141.636 23.0287 140.674 23.9905 140.674 25.1756C140.674 26.3607 141.636 27.3224 142.821 27.3224Z" fill="#F9F1EC"/>
<path d="M104.154 62.3001H111.846H104.154ZM104.154 68.5001H111.846H104.154ZM104.154 74.7001H111.846H104.154ZM82.6154 84.0001H113.385C114.609 84.0001 115.783 83.5102 116.648 82.6382C117.514 81.7661 118 80.5834 118 79.3501V57.6501C118 56.4169 117.514 55.2341 116.648 54.3621C115.783 53.49 114.609 53.0001 113.385 53.0001H82.6154C81.3913 53.0001 80.2174 53.49 79.3518 54.3621C78.4863 55.2341 78 56.4169 78 57.6501V79.3501C78 80.5834 78.4863 81.7661 79.3518 82.6382C80.2174 83.5102 81.3913 84.0001 82.6154 84.0001ZM94.9231 63.0751C94.9231 63.584 94.8236 64.0879 94.6303 64.558C94.437 65.0282 94.1537 65.4553 93.7966 65.8152C93.4394 66.175 93.0154 66.4604 92.5488 66.6552C92.0821 66.8499 91.582 66.9501 91.0769 66.9501C90.5718 66.9501 90.0717 66.8499 89.6051 66.6552C89.1384 66.4604 88.7144 66.175 88.3573 65.8152C88.0001 65.4553 87.7168 65.0282 87.5235 64.558C87.3303 64.0879 87.2308 63.584 87.2308 63.0751C87.2308 62.0474 87.636 61.0618 88.3573 60.3351C89.0786 59.6084 90.0569 59.2001 91.0769 59.2001C92.097 59.2001 93.0753 59.6084 93.7966 60.3351C94.5179 61.0618 94.9231 62.0474 94.9231 63.0751ZM97.5774 76.1695C95.576 77.2436 93.3425 77.8036 91.0749 77.8001C88.8086 77.803 86.5766 77.2429 84.5764 76.1695C85.0652 74.8288 85.9507 73.6714 87.1132 72.8539C88.2757 72.0364 89.6592 71.598 91.0769 71.598C92.4946 71.598 93.8782 72.0364 95.0407 72.8539C96.2032 73.6714 97.0886 74.8288 97.5774 76.1695Z" fill="#4258FF"/>
<path d="M104.154 62.3001H111.846M104.154 68.5001H111.846M104.154 74.7001H111.846M82.6154 84.0001H113.385C114.609 84.0001 115.783 83.5102 116.648 82.6382C117.514 81.7661 118 80.5834 118 79.3501V57.6501C118 56.4169 117.514 55.2341 116.648 54.3621C115.783 53.49 114.609 53.0001 113.385 53.0001H82.6154C81.3913 53.0001 80.2174 53.49 79.3518 54.3621C78.4863 55.2341 78 56.4169 78 57.6501V79.3501C78 80.5834 78.4863 81.7661 79.3518 82.6382C80.2174 83.5102 81.3913 84.0001 82.6154 84.0001ZM94.9231 63.0751C94.9231 63.584 94.8236 64.0879 94.6303 64.558C94.437 65.0282 94.1537 65.4553 93.7966 65.8152C93.4394 66.175 93.0154 66.4604 92.5488 66.6552C92.0821 66.8499 91.582 66.9501 91.0769 66.9501C90.5718 66.9501 90.0717 66.8499 89.6051 66.6552C89.1384 66.4604 88.7144 66.175 88.3573 65.8152C88.0001 65.4553 87.7168 65.0282 87.5235 64.558C87.3303 64.0879 87.2308 63.584 87.2308 63.0751C87.2308 62.0474 87.636 61.0618 88.3573 60.3351C89.0786 59.6084 90.0569 59.2001 91.0769 59.2001C92.097 59.2001 93.0753 59.6084 93.7966 60.3351C94.5179 61.0618 94.9231 62.0474 94.9231 63.0751ZM97.5774 76.1695C95.576 77.2436 93.3425 77.8036 91.0749 77.8001C88.8086 77.803 86.5766 77.2429 84.5764 76.1695C85.0652 74.8288 85.9507 73.6714 87.1132 72.8539C88.2757 72.0364 89.6592 71.598 91.0769 71.598C92.4946 71.598 93.8782 72.0364 95.0407 72.8539C96.2032 73.6714 97.0886 74.8288 97.5774 76.1695Z" stroke="white" stroke-linecap="round" stroke-linejoin="round"/>
<path d="M69.8933 117L65 90.0001L90 103.417L75.6964 105.319L69.8933 117Z" fill="#A6A5FF"/>
</svg>
