<svg width="151" height="97" viewBox="0 0 151 97" fill="none" xmlns="http://www.w3.org/2000/svg">
<rect width="151" height="97" fill="#DEDEDE"/>
<path fill-rule="evenodd" clip-rule="evenodd" d="M65.5 43C65.5 42.4033 65.7371 41.831 66.159 41.409C66.581 40.9871 67.1533 40.75 67.75 40.75H84.25C84.8467 40.75 85.419 40.9871 85.841 41.409C86.2629 41.831 86.5 42.4033 86.5 43V55C86.5 55.5967 86.2629 56.169 85.841 56.591C85.419 57.0129 84.8467 57.25 84.25 57.25H67.75C67.1533 57.25 66.581 57.0129 66.159 56.591C65.7371 56.169 65.5 55.5967 65.5 55V43ZM67 53.06V55C67 55.414 67.336 55.75 67.75 55.75H84.25C84.4489 55.75 84.6397 55.671 84.7803 55.5303C84.921 55.3897 85 55.1989 85 55V53.06L82.31 50.371C82.0287 50.0901 81.6475 49.9323 81.25 49.9323C80.8525 49.9323 80.4713 50.0901 80.19 50.371L79.31 51.25L80.28 52.22C80.3537 52.2887 80.4128 52.3715 80.4538 52.4635C80.4948 52.5555 80.5168 52.6548 80.5186 52.7555C80.5204 52.8562 80.5018 52.9562 80.4641 53.0496C80.4264 53.143 80.3703 53.2278 80.299 53.299C80.2278 53.3703 80.143 53.4264 80.0496 53.4641C79.9562 53.5018 79.8562 53.5204 79.7555 53.5186C79.6548 53.5168 79.5555 53.4948 79.4635 53.4538C79.3715 53.4128 79.2887 53.3537 79.22 53.28L74.06 48.121C73.7787 47.8401 73.3975 47.6823 73 47.6823C72.6025 47.6823 72.2213 47.8401 71.94 48.121L67 53.061V53.06ZM77.125 45.25C77.125 44.9516 77.2435 44.6655 77.4545 44.4545C77.6655 44.2435 77.9516 44.125 78.25 44.125C78.5484 44.125 78.8345 44.2435 79.0455 44.4545C79.2565 44.6655 79.375 44.9516 79.375 45.25C79.375 45.5484 79.2565 45.8345 79.0455 46.0455C78.8345 46.2565 78.5484 46.375 78.25 46.375C77.9516 46.375 77.6655 46.2565 77.4545 46.0455C77.2435 45.8345 77.125 45.5484 77.125 45.25Z" fill="#6B6F70"/>
</svg>
