<svg width="20" height="20" viewBox="0 0 20 20" fill="none" xmlns="http://www.w3.org/2000/svg">
<g clip-path="url(#clip0_199_8132)">
<path d="M11.667 1.6665C12.5837 1.6665 13.3337 2.4165 13.3337 3.33317V6.6665C13.3337 7.58317 12.5837 8.33317 11.667 8.33317M16.667 1.6665C17.5837 1.6665 18.3337 2.4165 18.3337 3.33317V6.6665C18.3337 7.58317 17.5837 8.33317 16.667 8.33317M8.33366 14.9998H4.16699C2.75033 14.9998 1.66699 13.9165 1.66699 12.4998V11.6665M8.33366 14.9998L5.83366 17.4998M8.33366 14.9998L5.83366 12.4998M3.33366 1.6665H6.66699C7.58747 1.6665 8.33366 2.4127 8.33366 3.33317V6.6665C8.33366 7.58698 7.58747 8.33317 6.66699 8.33317H3.33366C2.41318 8.33317 1.66699 7.58698 1.66699 6.6665V3.33317C1.66699 2.4127 2.41318 1.6665 3.33366 1.6665ZM13.3337 11.6665H16.667C17.5875 11.6665 18.3337 12.4127 18.3337 13.3332V16.6665C18.3337 17.587 17.5875 18.3332 16.667 18.3332H13.3337C12.4132 18.3332 11.667 17.587 11.667 16.6665V13.3332C11.667 12.4127 12.4132 11.6665 13.3337 11.6665Z" stroke="#0C2E4D" stroke-width="1.5" stroke-linecap="round" stroke-linejoin="round"/>
</g>
<defs>
<clipPath id="clip0_199_8132">
<rect width="20" height="20" fill="white"/>
</clipPath>
</defs>
</svg>
