<svg width="21" height="21" viewBox="0 0 21 21" fill="none" xmlns="http://www.w3.org/2000/svg">
<path d="M6.125 18.375V16.625C6.125 16.1609 6.30937 15.7158 6.63756 15.3876C6.96575 15.0594 7.41087 14.875 7.875 14.875H13.125C13.5891 14.875 14.0342 15.0594 14.3624 15.3876C14.6906 15.7158 14.875 16.1609 14.875 16.625V18.375M4.375 2.625H16.625C17.5915 2.625 18.375 3.4085 18.375 4.375V16.625C18.375 17.5915 17.5915 18.375 16.625 18.375H4.375C3.4085 18.375 2.625 17.5915 2.625 16.625V4.375C2.625 3.4085 3.4085 2.625 4.375 2.625ZM13.125 8.75C13.125 10.1997 11.9497 11.375 10.5 11.375C9.05025 11.375 7.875 10.1997 7.875 8.75C7.875 7.30025 9.05025 6.125 10.5 6.125C11.9497 6.125 13.125 7.30025 13.125 8.75Z" stroke="#6E6E6E" stroke-width="1.5" stroke-linecap="round" stroke-linejoin="round"/>
</svg>
