<svg width="17" height="16" viewBox="0 0 17 16" fill="none" xmlns="http://www.w3.org/2000/svg">
<mask id="mask0_199_11406" style="mask-type:luminance" maskUnits="userSpaceOnUse" x="0" y="0" width="17" height="16">
<path d="M0.985352 0H16.9854V16H0.985352V0Z" fill="white"/>
</mask>
<g mask="url(#mask0_199_11406)">
<path d="M16.8153 8.17999C16.8153 7.65299 16.7683 7.15299 16.6883 6.66699H9.15527V9.67299H13.4683C13.3735 10.1572 13.1832 10.6177 12.9085 11.0275C12.6338 11.4373 12.2802 11.7883 11.8683 12.06V14.06H14.4423C15.9483 12.667 16.8153 10.613 16.8153 8.17999Z" fill="#4285F4"/>
<path d="M9.15563 15.9999C11.3156 15.9999 13.1226 15.2799 14.4426 14.0599L11.8686 12.0599C11.1486 12.5399 10.2356 12.8329 9.15563 12.8329C7.06863 12.8329 5.30263 11.4269 4.66863 9.52686H2.01562V11.5869C2.67906 12.9125 3.6983 14.0274 4.95928 14.8068C6.22026 15.5861 7.67323 15.9992 9.15563 15.9999Z" fill="#34A853"/>
<path d="M4.66871 9.52709C4.49951 9.03583 4.41399 8.51966 4.41571 8.00009C4.41571 7.46709 4.50871 6.95309 4.66871 6.47309V4.41309H2.01571C1.45011 5.52419 1.15527 6.7533 1.15527 8.00009C1.15527 9.24687 1.45011 10.476 2.01571 11.5871L4.66871 9.52709Z" fill="#FBBC05"/>
<path d="M9.15563 3.167C10.3356 3.167 11.3886 3.573 12.2226 4.367L14.5026 2.087C13.1226 0.793 11.3156 0 9.15563 0C7.67323 0.000622656 6.22026 0.413732 4.95928 1.1931C3.6983 1.97247 2.67906 3.08735 2.01562 4.413L4.66863 6.473C5.30263 4.573 7.06863 3.167 9.15563 3.167Z" fill="#EA4335"/>
</g>
</svg>
