<svg width="40" height="40" viewBox="0 0 40 40" fill="none" xmlns="http://www.w3.org/2000/svg">
<g clip-path="url(#clip0_199_11385)">
<path d="M20 13.9748C23.79 13.9748 27.17 16.1048 28.82 19.4748C28.23 20.6948 27.4 21.7448 26.41 22.5948L27.82 24.0048C29.21 22.7748 30.31 21.2348 31 19.4748C29.27 15.0848 25 11.9748 20 11.9748C18.73 11.9748 17.51 12.1748 16.36 12.5448L18.01 14.1948C18.66 14.0648 19.32 13.9748 20 13.9748ZM18.93 15.1148L21 17.1848C21.57 17.4348 22.03 17.8948 22.28 18.4648L24.35 20.5348C24.43 20.1948 24.49 19.8348 24.49 19.4648C24.5 16.9848 22.48 14.9748 20 14.9748C19.63 14.9748 19.28 15.0248 18.93 15.1148ZM10.01 11.8448L12.69 14.5248C11.06 15.8048 9.77 17.5048 9 19.4748C10.73 23.8648 15 26.9748 20 26.9748C21.52 26.9748 22.98 26.6848 24.32 26.1548L27.74 29.5748L29.15 28.1648L11.42 10.4248L10.01 11.8448ZM17.51 19.3448L20.12 21.9548C20.08 21.9648 20.04 21.9748 20 21.9748C18.62 21.9748 17.5 20.8548 17.5 19.4748C17.5 19.4248 17.51 19.3948 17.51 19.3448ZM14.11 15.9448L15.86 17.6948C15.63 18.2448 15.5 18.8448 15.5 19.4748C15.5 21.9548 17.52 23.9748 20 23.9748C20.63 23.9748 21.23 23.8448 21.77 23.6148L22.75 24.5948C21.87 24.8348 20.95 24.9748 20 24.9748C16.21 24.9748 12.83 22.8448 11.18 19.4748C11.88 18.0448 12.9 16.8648 14.11 15.9448Z" fill="#8D8D8D"/>
</g>
<defs>
<clipPath id="clip0_199_11385">
<rect width="40" height="40" rx="20" fill="white"/>
</clipPath>
</defs>
</svg>
