<svg width="14" height="16" viewBox="0 0 14 16" fill="none" xmlns="http://www.w3.org/2000/svg">
<path fill-rule="evenodd" clip-rule="evenodd" d="M13.3996 2.94891L6.99961 0.753906L0.599609 2.94991V7.99991C0.599609 9.97591 1.77961 11.7279 3.69961 13.2649C4.3395 13.7729 5.0175 14.2309 5.72761 14.6349L6.02261 14.7989C6.25261 14.9249 6.44461 15.0229 6.58761 15.0899L6.99961 15.2799L7.33261 15.1279C8.3875 14.6186 9.3826 13.9938 10.2996 13.2649C12.2196 11.7279 13.3996 9.97491 13.3996 7.99991V2.94891ZM6.99961 2.44491L11.7996 4.09091V7.99991C11.7996 9.38391 10.8796 10.7519 9.29961 12.0149C8.72261 12.4769 8.09961 12.8899 7.47761 13.2449L7.31761 13.3349L6.99961 13.5059L6.83461 13.4199C6.08353 13.0144 5.36917 12.5443 4.69961 12.0149L4.49761 11.8499C3.04161 10.6329 2.19961 9.32391 2.19961 7.99991V4.08991L6.99961 2.44491Z" fill="#373D4D"/>
</svg>
