<svg width="20" height="20" viewBox="0 0 20 20" fill="none" xmlns="http://www.w3.org/2000/svg">
<path d="M12.4999 15.94C13.2107 16.1464 13.9472 16.2508 14.6874 16.25C15.8777 16.2517 17.0526 15.9803 18.1215 15.4567C18.1531 14.7098 17.9404 13.9729 17.5155 13.3578C17.0906 12.7427 16.4768 12.2828 15.7671 12.0479C15.0574 11.813 14.2904 11.8159 13.5825 12.0562C12.8746 12.2964 12.2642 12.7609 11.844 13.3792M12.4999 15.94V15.9375C12.4999 15.01 12.2615 14.1375 11.844 13.3792M12.4999 15.94V16.0283C10.8961 16.9942 9.0587 17.5032 7.18652 17.5C5.24402 17.5 3.42652 16.9625 1.87486 16.0283L1.87402 15.9375C1.87338 14.7579 2.26537 13.6116 2.98818 12.6794C3.71098 11.7472 4.7235 11.082 5.8661 10.7888C7.00869 10.4956 8.21638 10.5911 9.29874 11.0601C10.3811 11.5291 11.2766 12.345 11.844 13.3792M9.99986 5.3125C9.99986 6.05842 9.70354 6.77379 9.1761 7.30124C8.64865 7.82868 7.93328 8.125 7.18736 8.125C6.44144 8.125 5.72607 7.82868 5.19862 7.30124C4.67117 6.77379 4.37486 6.05842 4.37486 5.3125C4.37486 4.56658 4.67117 3.85121 5.19862 3.32376C5.72607 2.79632 6.44144 2.5 7.18736 2.5C7.93328 2.5 8.64865 2.79632 9.1761 3.32376C9.70354 3.85121 9.99986 4.56658 9.99986 5.3125ZM16.8749 7.1875C16.8749 7.76766 16.6444 8.32406 16.2342 8.7343C15.8239 9.14453 15.2675 9.375 14.6874 9.375C14.1072 9.375 13.5508 9.14453 13.1406 8.7343C12.7303 8.32406 12.4999 7.76766 12.4999 7.1875C12.4999 6.60734 12.7303 6.05094 13.1406 5.6407C13.5508 5.23047 14.1072 5 14.6874 5C15.2675 5 15.8239 5.23047 16.2342 5.6407C16.6444 6.05094 16.8749 6.60734 16.8749 7.1875Z" stroke="#0C2E4D" stroke-width="1.5" stroke-linecap="round" stroke-linejoin="round"/>
</svg>
